<svg xmlns="http://www.w3.org/2000/svg" width="64" height="100" viewBox="0 0 64 100"><defs><clipPath id="edge"><rect x="2" y="2" width="60" height="96" rx="2"/></clipPath></defs><rect width="64" height="100" rx="4" fill="#191c19"/><rect x="2" y="2" width="60" height="96" rx="2" fill="#fff9e9"/><g clip-path="url(#edge)"><path d="M0 0H8L34 102H28Z" fill="#191c19" /><path d="M12 8Q-3 38 16 65" fill="none" stroke="#234f36" stroke-width="3"/><path d="M20 8Q5 38 24 65" fill="none" stroke="#234f36" stroke-width="3"/><path d="M28 8Q13 38 32 65" fill="none" stroke="#234f36" stroke-width="3"/><path d="M36 8Q21 38 40 65" fill="none" stroke="#234f36" stroke-width="3"/><path d="M44 8Q29 38 48 65" fill="none" stroke="#234f36" stroke-width="3"/><path d="M0 100L19 85L33 96L64 76V100Z" fill="#191c19" /><path d="M7 72l-2 8M27 62l-2 8M55 52l-2 8" stroke="#204a94" stroke-width="1.5"/><path d="M31 46L46 41L53 88H29Z" fill="#204a94" /><circle cx="40" cy="37" r="7" fill="#fff9e9"/><path d="M18 29Q34 5 57 29Z" fill="#cb302c" /><path d="M38 28v55" stroke="#191c19" stroke-width="2"/><circle cx="52" cy="88" r="10" fill="#fff9e9" stroke="#cb302c" stroke-width="1.5"/><text x="52" y="94" text-anchor="middle" font-size="17" font-weight="bold" fill="#cb302c" font-family="serif">光</text></g><rect x="3" y="3" width="13" height="13" rx="2" fill="#fff9e9" opacity=".92"/><text x="9.5" y="13" text-anchor="middle" font-size="9" font-weight="bold" fill="#191c19" font-family="sans-serif">12</text></svg>